<svg width="15" height="15" viewBox="0 0 15 15" fill="none" xmlns="http://www.w3.org/2000/svg">
<path d="M14.7602 9.92034L8.07887 3.23915C7.92448 3.08476 7.71863 3 7.49436 3C7.2746 3 7.06863 3.08476 6.91448 3.23915L0.239389 9.914C0.0849997 10.0685 0 10.2745 0 10.4942C0 10.714 0.0848777 10.9201 0.239389 11.0745L0.730973 11.5661C0.885362 11.7205 1.09146 11.8057 1.31121 11.8057C1.53097 11.8057 1.73694 11.7205 1.89146 11.5661L7.49668 5.96084L13.1081 11.5725C13.2625 11.7268 13.4685 11.8119 13.6884 11.8119C13.9081 11.8119 14.114 11.7268 14.2685 11.5725L14.7602 11.0807C15.0799 10.7608 15.0799 10.2402 14.7602 9.92034Z" fill="#4A52A3"/>
</svg>
