<svg width="10" height="10" viewBox="0 0 10 10" fill="none" xmlns="http://www.w3.org/2000/svg">
<path d="M8.75 1.25H8.33336V0.416641C8.33336 0.186691 8.14667 0 7.91664 0H7.5C7.26997 0 7.08336 0.186691 7.08336 0.416641V1.25H2.91664V0.416641C2.91664 0.186691 2.73003 0 2.5 0H2.08336C1.85333 0 1.66664 0.186691 1.66664 0.416641V1.25H1.25C0.560837 1.25 0 1.81084 0 2.5V8.75C0 9.43916 0.560837 10 1.25 10H8.75C9.43916 10 10 9.43916 10 8.75V2.5C10 1.81084 9.43916 1.25 8.75 1.25ZM9.16664 8.75C9.16664 8.97957 8.97957 9.16664 8.75 9.16664H1.25C1.02043 9.16664 0.833359 8.97957 0.833359 8.75V4.18335H9.16664V8.75Z" fill="black"/>
</svg>
