<svg width="8" height="10" viewBox="0 0 8 10" fill="none" xmlns="http://www.w3.org/2000/svg">
<path d="M3.62162 0C1.62465 0 0 1.62465 0 3.6216C0 6.09988 3.241 9.73815 3.37898 9.89182C3.50859 10.0362 3.73488 10.0359 3.86426 9.89182C4.00225 9.73815 7.24324 6.09988 7.24324 3.6216C7.2432 1.62465 5.61857 0 3.62162 0ZM3.62162 5.44373C2.61689 5.44373 1.79951 4.62633 1.79951 3.6216C1.79951 2.61688 2.61691 1.79949 3.62162 1.79949C4.62633 1.79949 5.44371 2.61689 5.44371 3.62162C5.44371 4.62635 4.62633 5.44373 3.62162 5.44373Z" fill="#2B2A35"/>
</svg>
